<?xml version="1.0" encoding="iso-8859-1"?>
<!-- Generator: Adobe Illustrator 19.0.0, SVG Export Plug-In . SVG Version: 6.00 Build 0)  -->
<svg xmlns="http://www.w3.org/2000/svg" xmlns:xlink="http://www.w3.org/1999/xlink" version="1.1" id="Layer_1" x="0px" y="0px" viewBox="0 0 512 512" style="enable-background:new 0 0 512 512;" xml:space="preserve" width="512px" height="512px">
<g>
	<g>
		<path d="M448.494,37.906H348.296c-4.766,0-8.628,3.863-8.628,8.628s3.862,8.628,8.628,8.628h100.198    c4.766,0,8.628-3.863,8.628-8.628S453.26,37.906,448.494,37.906z" fill="#24578b"/>
	</g>
</g>
<g>
	<g>
		<path d="M448.494,116.761h-57.139c-4.766,0-8.628,3.863-8.628,8.628s3.862,8.628,8.628,8.628h57.139    c4.766,0,8.628-3.863,8.628-8.628S453.26,116.761,448.494,116.761z" fill="#24578b"/>
	</g>
</g>
<g>
	<g>
		<path d="M361.89,116.761h-13.593c-4.766,0-8.628,3.863-8.628,8.628s3.862,8.628,8.628,8.628h13.593    c4.766,0,8.628-3.863,8.628-8.628S366.656,116.761,361.89,116.761z" fill="#24578b"/>
	</g>
</g>
<g>
	<g>
		<path d="M448.494,77.334h-8.943c-4.766,0-8.628,3.863-8.628,8.628s3.862,8.628,8.628,8.628h8.943c4.766,0,8.628-3.863,8.628-8.628    S453.26,77.334,448.494,77.334z" fill="#24578b"/>
	</g>
</g>
<g>
	<g>
		<path d="M407.344,77.334h-59.046c-4.766,0-8.628,3.863-8.628,8.628s3.862,8.628,8.628,8.628h59.046    c4.766,0,8.628-3.863,8.628-8.628S412.11,77.334,407.344,77.334z" fill="#24578b"/>
	</g>
</g>
<g>
	<g>
		<path d="M462.887,0H333.904c-20.067,0-36.393,16.326-36.393,36.393v96.688c0,20.067,16.325,36.393,36.393,36.393h17.125    l-0.956,22.232c-0.138,3.224,1.533,6.256,4.336,7.859c1.329,0.762,2.807,1.139,4.285,1.139c1.633,0,3.264-0.464,4.687-1.384    l46.128-29.846h53.38c20.067,0,36.393-16.326,36.393-36.393V36.393C499.28,16.326,482.954,0,462.887,0z M482.025,133.081    c0,10.552-8.585,19.137-19.137,19.137H406.96c-1.662,0-3.29,0.481-4.687,1.384l-34.242,22.156l0.626-14.542    c0.101-2.35-0.762-4.639-2.389-6.338c-1.628-1.699-3.878-2.66-6.23-2.66h-26.133c-10.552,0-19.137-8.585-19.137-19.137V36.393    c0-10.552,8.585-19.137,19.137-19.137h128.983c10.552,0,19.137,8.585,19.137,19.137V133.081z" fill="#24578b"/>
	</g>
</g>
<g>
	<g>
		<path d="M286.812,391.386c-10.443-11.249-23.501-19.389-37.871-23.828c5.037-5.259,9.395-11.152,12.943-17.549h4.083    c21.579,0,39.135-17.556,39.135-39.135v-98.635c0-66.951-54.462-121.42-121.405-121.42h-44.735    c-66.95,0-121.42,54.468-121.42,121.42v80.188c0,13.72,11.162,24.882,24.882,24.882c2.749,0,5.423-0.467,7.959-1.319    c1.666,19.49,9.94,37.642,23.305,51.584c-14.362,4.439-27.414,12.579-37.851,23.826c-14.909,16.065-23.119,36.991-23.119,58.922    v53.052c0,4.764,3.862,8.626,8.628,8.626h279.965c4.766,0,8.628-3.863,8.628-8.628V450.32    C309.939,428.382,301.725,407.451,286.812,391.386z M255.337,239.181l-35.17-49.227c-1.842-2.578-4.944-3.942-8.094-3.545    c-3.144,0.395-5.821,2.481-6.968,5.435c-7.182,18.478-19.627,34.163-35.989,45.36c-16.364,11.196-35.493,17.114-55.318,17.114    H67.32v-38.599c0-42.541,34.609-77.152,77.151-77.152h33.715c42.541,0,77.152,34.611,77.152,77.152V239.181z M269.196,332.486    c1.57-5.372,2.58-10.882,3.056-16.495c2.503,0.849,5.181,1.316,7.967,1.316c2.371,0,4.689-0.344,6.91-0.984    C284.961,324.735,277.919,331.186,269.196,332.486z M287.845,292.425c0,0.412-0.031,0.809-0.099,1.224    c-0.252,1.582-0.994,3.031-2.116,4.16c-1.453,1.446-3.375,2.243-5.411,2.243c-4.205,0-7.627-3.421-7.627-7.627v-42.581    c0-4.206,3.422-7.627,7.627-7.627s7.626,3.421,7.626,7.627V292.425z M50.065,292.425c0,2.036-0.796,3.958-2.217,5.385    c-1.452,1.446-3.379,2.242-5.424,2.242c-4.205,0-7.627-3.421-7.627-7.627v-42.581c0-4.206,3.422-7.627,7.627-7.627    c4.213,0,7.641,3.421,7.641,7.627C50.065,249.844,50.065,292.425,50.065,292.425z M50.065,215.719v10.448    c-2.409-0.779-4.975-1.203-7.641-1.203c-2.66,0-5.221,0.424-7.627,1.201v-13.925c0-57.436,46.727-104.164,104.164-104.164h44.734    c57.428,0,104.149,46.727,104.149,104.164v13.925c-2.404-0.776-4.966-1.2-7.626-1.2s-5.221,0.424-7.627,1.201v-10.444    c0-52.056-42.35-94.407-94.407-94.407h-33.715C92.415,121.312,50.065,163.663,50.065,215.719z M67.32,308.68v-16.254v-20.851    h46.479c23.319,0,45.816-6.961,65.062-20.129c14.996-10.26,27.193-23.726,35.844-39.454l40.633,56.872v39.816    c0,8.322-1.505,16.39-4.436,24.072h-58.216c-4.766,0-8.628,3.863-8.628,8.628s3.862,8.628,8.628,8.628h48.613    c-4.5,5.866-9.947,10.986-16.16,15.128c-4.857,3.261-10.167,5.886-15.789,7.802c-0.082,0.025-0.164,0.052-0.246,0.078    l-37.516,12.638c-6.566,2.217-13.942,2.218-20.538-0.002l-37.51-12.637c-5.693-1.918-11.095-4.569-16.053-7.879    C78.597,352.52,67.32,331.414,67.32,308.68z M212.159,433.398l-42.202-22.714v-6.864c2.424-0.428,4.812-1.028,7.146-1.815    l27.986-9.427L212.159,433.398z M152.702,403.82v6.864l-42.203,22.713l7.07-40.816l27.974,9.424    C147.884,402.792,150.276,403.392,152.702,403.82z M152.703,494.746H29.974V450.32c0-35.025,26.597-64.743,61.043-68.862    c3.23,1.959,6.591,3.701,10.062,5.217L90.47,447.93c-0.564,3.253,0.779,6.543,3.458,8.474c1.499,1.079,3.267,1.627,5.044,1.627    c1.401,0,2.807-0.34,4.089-1.031l20.419-10.989l29.222,29.212V494.746z M139.344,437.469l21.985-11.833l21.984,11.833    l-21.984,21.976L139.344,437.469z M292.684,494.745H169.957V475.22l29.221-29.211l20.418,10.99c1.283,0.69,2.688,1.031,4.09,1.031    c1.777,0,3.545-0.548,5.044-1.627c2.679-1.929,4.022-5.219,3.458-8.472l-10.61-61.256c3.48-1.521,6.842-3.268,10.06-5.227    c34.45,4.13,61.046,33.848,61.046,68.873V494.745z" fill="#24578b"/>
	</g>
</g>
<g>
</g>
<g>
</g>
<g>
</g>
<g>
</g>
<g>
</g>
<g>
</g>
<g>
</g>
<g>
</g>
<g>
</g>
<g>
</g>
<g>
</g>
<g>
</g>
<g>
</g>
<g>
</g>
<g>
</g>
</svg>
